<svg t="1690005330773" class="icon" viewBox="0 0 1024 1024" version="1.1" xmlns="http://www.w3.org/2000/svg" p-id="8917" width="32" height="32"><path d="M364.8 512c-44.8-29.866667-96-53.333333-149.333333-68.266667C268.8 458.666667 320 482.133333 364.8 512zM810.666667 443.733333c-55.466667 14.933333-106.666667 38.4-151.466667 70.4C704 482.133333 755.2 458.666667 810.666667 443.733333z" fill="#f1a298" p-id="8918"></path><path d="M661.333333 411.733333c-8.533333-119.466667-55.466667-234.666667-147.2-326.4-91.733333 91.733333-140.8 206.933333-151.466667 326.4 55.466667 29.866667 104.533333 66.133333 149.333333 110.933333C554.666667 477.866667 605.866667 439.466667 661.333333 411.733333zM384 524.8c-6.4-4.266667-12.8-8.533333-19.2-12.8C371.2 516.266667 377.6 520.533333 384 524.8zM657.066667 512c-6.4 4.266667-12.8 6.4-17.066667 10.666667C646.4 520.533333 650.666667 516.266667 657.066667 512zM512 659.2c-91.733333-140.8-247.466667-232.533333-426.666667-232.533333 0 226.133333 142.933333 418.133333 343.466667 490.666667 27.733333 10.666667 55.466667 17.066667 83.2 21.333333 29.866667-4.266667 57.6-12.8 83.2-21.333333 200.533333-70.4 343.466667-262.4 343.466667-490.666667C759.466667 426.666667 603.733333 518.4 512 659.2z" p-id="8919" data-spm-anchor-id="a313x.7781069.0.i17" class="" fill="#f1a298"></path></svg>